<svg width="28" height="28" viewBox="0 0 28 28" fill="none" xmlns="http://www.w3.org/2000/svg">
<path d="M5.25 3C4.00781 3 3 4.00781 3 5.25V21.75C3 22.9922 4.00781 24 5.25 24H21.75C22.9922 24 24 22.9922 24 21.75V5.25C24 4.00781 22.9922 3 21.75 3H5.25ZM9.885 9.24534C10.8054 9.24534 11.6232 9.56358 12.2254 10.0409C12.7823 10.4839 13.0431 10.9271 13.2706 11.3249L11.6805 12.1194C11.5667 11.8585 11.4299 11.5856 11.0783 11.2905C10.6917 10.9834 10.3059 10.8929 9.97566 10.8929C8.68069 10.8929 7.99894 12.0972 7.99894 13.4376C7.99894 15.1988 8.89711 16.0729 9.97566 16.0729C11.021 16.0729 11.4418 15.3458 11.7138 14.8806L13.2938 15.6872C12.9977 16.1525 12.7137 16.6076 12.0773 17.0498C11.7369 17.2884 10.9534 17.7547 9.83972 17.7547C7.71497 17.7547 6 16.2098 6 13.4939C6 11.1203 7.6132 9.24534 9.885 9.24534ZM13.4233 9.49505H15.5591L17.2177 15.1987L18.8641 9.49509H21L18.2166 17.516H16.1723L13.4233 9.49505Z" fill="#F15103"/>
</svg>
