<svg width="28" height="28" viewBox="0 0 28 28" fill="none" xmlns="http://www.w3.org/2000/svg">
<path d="M23.6 5H4.4C3.08 5 2.012 6.0125 2.012 7.25L2 20.75C2 21.9875 3.08 23 4.4 23H23.6C24.92 23 26 21.9875 26 20.75V7.25C26 6.0125 24.92 5 23.6 5ZM23.12 9.78125L14.636 14.7538C14.252 14.9788 13.748 14.9788 13.364 14.7538L4.88 9.78125C4.75967 9.71792 4.6543 9.63237 4.57027 9.52976C4.48623 9.42715 4.42527 9.30963 4.39109 9.18429C4.35691 9.05896 4.3502 8.92843 4.37139 8.8006C4.39257 8.67276 4.4412 8.55029 4.51434 8.44059C4.58747 8.33089 4.68359 8.23624 4.79687 8.16237C4.91015 8.0885 5.03825 8.03695 5.17339 8.01084C5.30854 7.98472 5.44794 7.98459 5.58315 8.01044C5.71835 8.0363 5.84656 8.0876 5.96 8.16125L14 12.875L22.04 8.16125C22.1534 8.0876 22.2816 8.0363 22.4169 8.01044C22.5521 7.98459 22.6915 7.98472 22.8266 8.01084C22.9618 8.03695 23.0898 8.0885 23.2031 8.16237C23.3164 8.23624 23.4125 8.33089 23.4857 8.44059C23.5588 8.55029 23.6074 8.67276 23.6286 8.8006C23.6498 8.92843 23.6431 9.05896 23.6089 9.18429C23.5747 9.30963 23.5138 9.42715 23.4297 9.52976C23.3457 9.63237 23.2403 9.71792 23.12 9.78125Z" fill="#F15103"/>
</svg>
