<svg width="28" height="28" viewBox="0 0 28 28" fill="none" xmlns="http://www.w3.org/2000/svg">
<path d="M14 3C12.5555 3 11.1251 3.29159 9.79048 3.85811C8.4559 4.42464 7.24327 5.25501 6.22183 6.30181C4.15893 8.41593 3 11.2833 3 14.2731C3 19.2558 6.157 23.4832 10.524 24.9825C11.074 25.0727 11.25 24.7233 11.25 24.4189V22.5137C8.203 23.1901 7.554 21.0031 7.554 21.0031C7.048 19.6955 6.333 19.346 6.333 19.346C5.332 18.6471 6.41 18.6696 6.41 18.6696C7.51 18.7485 8.093 19.8307 8.093 19.8307C9.05 21.5442 10.667 21.037 11.294 20.7664C11.393 20.0336 11.679 19.5376 11.987 19.2558C9.545 18.974 6.982 18.0045 6.982 13.7094C6.982 12.4581 7.4 11.4548 8.115 10.6544C8.005 10.3726 7.62 9.2002 8.225 7.67834C8.225 7.67834 9.149 7.37396 11.25 8.82819C12.119 8.58018 13.065 8.45618 14 8.45618C14.935 8.45618 15.881 8.58018 16.75 8.82819C18.851 7.37396 19.775 7.67834 19.775 7.67834C20.38 9.2002 19.995 10.3726 19.885 10.6544C20.6 11.4548 21.018 12.4581 21.018 13.7094C21.018 18.0158 18.444 18.9627 15.991 19.2445C16.387 19.594 16.75 20.2817 16.75 21.3301V24.4189C16.75 24.7233 16.926 25.084 17.487 24.9825C21.854 23.4719 25 19.2558 25 14.2731C25 12.7927 24.7155 11.3268 24.1627 9.95907C23.6099 8.59135 22.7996 7.34862 21.7782 6.30181C20.7567 5.25501 19.5441 4.42464 18.2095 3.85811C16.8749 3.29159 15.4445 3 14 3Z" fill="#F15103"/>
</svg>
