<svg width="1280" height="738" viewBox="0 0 1280 738" fill="none" xmlns="http://www.w3.org/2000/svg">
<g style="mix-blend-mode:screen" clip-path="url(#clip0_770_16)">
<rect width="1280" height="738" fill="url(#paint0_linear_770_16)"/>
<path d="M50 588C34 599.333 14 637 0 640.5V738H1280V501C1270.67 496.667 1255 485.5 1231 495.5C1196.87 509.722 1173.5 561.5 1158.5 575.5L1157.79 576.164C1149.65 583.77 1136.78 595.798 1121 601.5C1108.14 606.148 1078 607 1062.5 601.5C1041.51 594.05 1008.88 576.119 986.5 563C943 537.5 882.912 519.877 864.5 530.5C838.5 545.5 780.12 516.903 766 530.5C752.5 543.5 763.5 565 744 565C718.5 565 718 546 695.5 508.5C684.08 489.466 658.522 484.847 646 492.5C633.851 499.925 634.53 519.174 636.5 530.5C638.844 543.98 644 563.841 627 565C605 566.5 598 566.5 581 566.5C545.496 566.5 502.5 530.5 480 506.5C457.5 482.5 438.5 482 402.5 482C368 482 343.5 487.5 329 505.5C305.25 534.982 293.517 555 264 555C234.5 555 193.621 628.5 175 606C163 591.5 141 563 109 563C81 563 62.806 578.929 50 588Z" fill="#117F95"/>
<path d="M0 202.929V0H1280V85.9114C1242 75.5428 1155.5 86.2877 1103.5 125.54C1023.39 186.016 947.5 171.459 907.5 149.981C871.636 130.724 816 66.2911 745 66.2911C674 66.2911 621.5 149.981 578 149.981C534.154 149.981 487.5 109.247 432.5 82.5847C377.5 55.9225 332 98.8782 314.5 118.875C297 138.871 262.5 245.52 175.5 260.332C105.9 272.182 29.1667 217.494 0 202.929Z" fill="#117F95"/>
</g>
<defs>
<linearGradient id="paint0_linear_770_16" x1="659.5" y1="-229.5" x2="434" y2="738" gradientUnits="userSpaceOnUse">
<stop stop-color="#F15103"/>
<stop offset="1" stop-color="#F5D89C"/>
</linearGradient>
<clipPath id="clip0_770_16">
<rect width="1280" height="738" fill="white"/>
</clipPath>
</defs>
</svg>
