<svg width="24" height="24" viewBox="0 0 24 24" fill="none" xmlns="http://www.w3.org/2000/svg">
<g clip-path="url(#clip0_792_1974)">
<path d="M0 12C0 5.37258 5.37258 0 12 0V0C18.6274 0 24 5.37258 24 12V12C24 18.6274 18.6274 24 12 24V24C5.37258 24 0 18.6274 0 12V12Z" fill="#F7DF1E"/>
<path d="M4.00009 15.9798L5.85746 14.891C6.21585 15.5064 6.54182 16.0271 7.32373 16.0271C8.07322 16.0271 8.54586 15.7432 8.54586 14.6385V7.12637H10.8267V14.6698C10.8267 16.9581 9.44193 17.9997 7.42148 17.9997C5.59682 17.9997 4.53768 17.0844 4 15.9797M12.0657 15.7431L13.9228 14.7015C14.4118 15.4749 15.0472 16.043 16.1713 16.043C17.1165 16.043 17.7191 15.5853 17.7191 14.954C17.7191 14.1965 17.1 13.9282 16.0572 13.4864L15.4871 13.2495C13.8415 12.5711 12.7499 11.7188 12.7499 9.91972C12.7499 8.26259 14.0533 7 16.09 7C17.54 7 18.5828 7.48931 19.3321 8.76761L17.5561 9.87242C17.165 9.19383 16.7416 8.92557 16.0899 8.92557C15.4218 8.92557 14.9982 9.3359 14.9982 9.87242C14.9982 10.5352 15.4218 10.8037 16.3993 11.214L16.9695 11.4507C18.9084 12.2556 20 13.0762 20 14.9225C20 16.9112 18.3871 18 16.2201 18C14.1021 18 12.7335 17.0216 12.0656 15.7432" fill="black"/>
</g>
<defs>
<clipPath id="clip0_792_1974">
<rect width="24" height="24" fill="white"/>
</clipPath>
</defs>
</svg>
