<svg width="24" height="24" viewBox="0 0 24 24" fill="none" xmlns="http://www.w3.org/2000/svg">
<path d="M12.5826 0.154743C12.4017 0.0560657 12.1969 0.00415039 11.9884 0.00415039C11.7799 0.00415039 11.575 0.0560657 11.3941 0.154743L1.58292 5.58006C1.20973 5.78106 1 6.16037 1 6.56256V17.4353C1 17.8371 1.23297 18.2166 1.58253 18.4178L11.3937 23.8429C11.5747 23.9416 11.7796 23.9936 11.9881 23.9936C12.1966 23.9936 12.4015 23.9416 12.5824 23.8429L22.3937 18.4176C22.7666 18.2166 22.9762 17.8371 22.9762 17.4351V6.56256C22.9762 6.16056 22.7432 5.78124 22.3937 5.58006L12.5826 0.154743Z" fill="url(#paint0_linear_792_1940)"/>
<path d="M22.4172 5.58L12.5595 0.154684C12.4628 0.10765 12.3613 0.0702635 12.2565 0.0431213L1.21008 18.1496C1.30159 18.2564 1.41203 18.3472 1.5364 18.4177L11.3943 23.8429C11.6739 23.9991 12.0001 24.0439 12.3031 23.9544L22.6736 5.781C22.6056 5.6961 22.5178 5.62731 22.4172 5.58Z" fill="url(#paint1_linear_792_1940)"/>
<path d="M22.4174 18.4172C22.6971 18.261 22.9068 17.9931 23 17.7028L12.21 0.0202375C11.9303 -0.0243875 11.6273 -0.00207502 11.371 0.1543L1.58307 5.5573L12.1399 23.9989C12.2797 23.9764 12.4432 23.9317 12.583 23.8648L22.4174 18.4172Z" fill="url(#paint2_linear_792_1940)"/>
<defs>
<linearGradient id="paint0_linear_792_1940" x1="15.9838" y1="4.19491" x2="7.7101" y2="21.8123" gradientUnits="userSpaceOnUse">
<stop stop-color="#3F873F"/>
<stop offset="0.33" stop-color="#3F8B3D"/>
<stop offset="0.637" stop-color="#3E9638"/>
<stop offset="0.934" stop-color="#3DA92E"/>
<stop offset="1" stop-color="#3DAE2B"/>
</linearGradient>
<linearGradient id="paint1_linear_792_1940" x1="10.4976" y1="13.2686" x2="34.6255" y2="-5.34021" gradientUnits="userSpaceOnUse">
<stop offset="0.138" stop-color="#3F873F"/>
<stop offset="0.402" stop-color="#52A044"/>
<stop offset="0.713" stop-color="#64B749"/>
<stop offset="0.908" stop-color="#6ABF4B"/>
</linearGradient>
<linearGradient id="paint2_linear_792_1940" x1="0.640878" y1="11.9952" x2="23.3434" y2="11.9952" gradientUnits="userSpaceOnUse">
<stop offset="0.092" stop-color="#6ABF4B"/>
<stop offset="0.287" stop-color="#64B749"/>
<stop offset="0.598" stop-color="#52A044"/>
<stop offset="0.862" stop-color="#3F873F"/>
</linearGradient>
</defs>
</svg>
