<svg width="22" height="22" viewBox="0 0 22 22" fill="none" xmlns="http://www.w3.org/2000/svg">
<g clip-path="url(#clip0_792_2026)">
<path d="M11 0C12.4445 0 13.8749 0.284523 15.2095 0.837325C16.5441 1.39013 17.7567 2.20038 18.7782 3.22183C19.7996 4.24327 20.6099 5.4559 21.1627 6.79048C21.7155 8.12506 22 9.55546 22 11C22 13.9174 20.8411 16.7153 18.7782 18.7782C16.7153 20.8411 13.9174 22 11 22C9.55546 22 8.12506 21.7155 6.79048 21.1627C5.4559 20.6099 4.24327 19.7996 3.22183 18.7782C1.15893 16.7153 0 13.9174 0 11C0 8.08262 1.15893 5.28473 3.22183 3.22183C5.28473 1.15893 8.08262 0 11 0ZM8.8 14.663C8.976 15.257 8.954 15.807 8.8 16.313C8.8 16.368 8.756 16.423 8.734 16.5C8.712 16.5 8.69 16.577 8.657 16.632C8.536 16.896 8.36 17.149 8.151 17.369C7.513 18.073 6.6 18.337 6.237 18.117C5.819 17.875 6.05 16.885 6.776 16.104C7.568 15.268 8.712 14.718 8.712 14.718L8.8 14.663ZM17.897 4.708C17.402 2.75 14.157 2.112 11.099 3.201C9.273 3.85 7.293 4.862 5.874 6.193C4.191 7.777 3.916 9.152 4.026 9.724C4.4 11.748 7.194 13.079 8.338 14.058V14.069C8.008 14.234 5.544 15.477 4.95 16.753C4.356 18.095 5.06 19.063 5.5 19.195C6.974 19.591 8.459 18.876 9.251 17.677C10.021 16.533 9.966 15.048 9.625 14.3C10.087 14.19 10.626 14.135 11.308 14.212C13.244 14.443 13.618 15.642 13.541 16.148C13.475 16.654 13.068 16.929 12.936 17.017C12.804 17.094 12.76 17.127 12.771 17.193C12.782 17.281 12.848 17.281 12.958 17.259C13.123 17.226 13.981 16.852 14.014 15.917C14.058 14.729 12.925 13.409 10.923 13.442C10.098 13.464 9.581 13.541 9.207 13.684L9.119 13.585C7.876 12.265 5.588 11.33 5.687 9.548C5.72 8.899 5.94 7.205 10.087 5.137C13.475 3.443 16.192 3.905 16.665 4.95C17.336 6.413 15.213 9.152 11.693 9.548C10.351 9.702 9.636 9.174 9.46 8.987C9.273 8.8 9.251 8.767 9.185 8.8C9.064 8.877 9.141 9.053 9.185 9.163C9.284 9.438 9.724 9.9 10.45 10.164C11.099 10.373 12.683 10.494 14.586 9.757C16.72 8.932 18.392 6.633 17.897 4.708Z" fill="#CD6799"/>
</g>
<defs>
<clipPath id="clip0_792_2026">
<rect width="22" height="22" fill="white"/>
</clipPath>
</defs>
</svg>
