<svg width="24" height="24" viewBox="0 0 24 24" fill="none" xmlns="http://www.w3.org/2000/svg">
<g clip-path="url(#clip0_792_2026)">
<path d="M12 0C13.5759 0 15.1363 0.310389 16.5922 0.913446C18.0481 1.5165 19.371 2.40042 20.4853 3.51472C21.5996 4.62902 22.4835 5.95189 23.0866 7.4078C23.6896 8.86371 24 10.4241 24 12C24 15.1826 22.7357 18.2348 20.4853 20.4853C18.2348 22.7357 15.1826 24 12 24C10.4241 24 8.86371 23.6896 7.4078 23.0866C5.95189 22.4835 4.62902 21.5996 3.51472 20.4853C1.26428 18.2348 0 15.1826 0 12C0 8.8174 1.26428 5.76516 3.51472 3.51472C5.76516 1.26428 8.8174 0 12 0ZM9.6 15.996C9.792 16.644 9.768 17.244 9.6 17.796C9.6 17.856 9.552 17.916 9.528 18C9.504 18 9.48 18.084 9.444 18.144C9.312 18.432 9.12 18.708 8.892 18.948C8.196 19.716 7.2 20.004 6.804 19.764C6.348 19.5 6.6 18.42 7.392 17.568C8.256 16.656 9.504 16.056 9.504 16.056L9.6 15.996ZM19.524 5.136C18.984 3 15.444 2.304 12.108 3.492C10.116 4.2 7.956 5.304 6.408 6.756C4.572 8.484 4.272 9.984 4.392 10.608C4.8 12.816 7.848 14.268 9.096 15.336V15.348C8.736 15.528 6.048 16.884 5.4 18.276C4.752 19.74 5.52 20.796 6 20.94C7.608 21.372 9.228 20.592 10.092 19.284C10.932 18.036 10.872 16.416 10.5 15.6C11.004 15.48 11.592 15.42 12.336 15.504C14.448 15.756 14.856 17.064 14.772 17.616C14.7 18.168 14.256 18.468 14.112 18.564C13.968 18.648 13.92 18.684 13.932 18.756C13.944 18.852 14.016 18.852 14.136 18.828C14.316 18.792 15.252 18.384 15.288 17.364C15.336 16.068 14.1 14.628 11.916 14.664C11.016 14.688 10.452 14.772 10.044 14.928L9.948 14.82C8.592 13.38 6.096 12.36 6.204 10.416C6.24 9.708 6.48 7.86 11.004 5.604C14.7 3.756 17.664 4.26 18.18 5.4C18.912 6.996 16.596 9.984 12.756 10.416C11.292 10.584 10.512 10.008 10.32 9.804C10.116 9.6 10.092 9.564 10.02 9.6C9.888 9.684 9.972 9.876 10.02 9.996C10.128 10.296 10.608 10.8 11.4 11.088C12.108 11.316 13.836 11.448 15.912 10.644C18.24 9.744 20.064 7.236 19.524 5.136Z" fill="#CD6799"/>
</g>
<defs>
<clipPath id="clip0_792_2026">
<rect width="24" height="24" fill="white"/>
</clipPath>
</defs>
</svg>
