<svg width="24" height="24" viewBox="0 0 24 24" fill="none" xmlns="http://www.w3.org/2000/svg">
<path d="M19.762 7.6541V16.2913L12.4161 20.645L12.3498 20.7055V23.9376L12.4161 24L22.7542 18.0234V5.97659L22.6567 5.95319L19.7308 7.58388L19.7464 7.6541" fill="#2F406A"/>
<path d="M5.04681 16.3693L12.4161 20.645V24L2 18V5.99998L2.10728 5.98438L5.0156 7.67553L5.04681 7.77306V16.3693Z" fill="#2379BD"/>
<path d="M5.04681 7.77113L2 6L12.3927 0L22.762 5.97659L19.762 7.6541L12.3927 3.44863L5.04681 7.77113Z" fill="#03AFEF"/>
<path d="M12.2893 15.3804L12.2094 15.2984V12.0527L12.2893 12.0117L12.3088 11.9317L15.0923 10.3088L15.1781 10.3283V13.6736L12.2913 15.3823" fill="#2F406A"/>
<path d="M9.3537 13.777V10.303H9.43367L12.264 11.9512L12.2874 12.0156V15.3804L9.3537 13.777Z" fill="#2379BD"/>
<path d="M12.2425 8.59424L9.3537 10.303L12.2893 12.0117L15.1762 10.3264L12.2425 8.59424Z" fill="#03AFEF"/>
<path d="M8.69637 17.4987L8.61639 17.4168V14.171L8.69637 14.13L8.71587 14.0501L11.4994 12.4272L11.5852 12.4467V15.79L8.69832 17.4987" fill="#2F406A"/>
<path d="M5.76074 15.9012V12.4213H5.84072L8.67492 14.0657L8.69832 14.13V17.4987L5.76074 15.9012Z" fill="#2379BD"/>
<path d="M8.64761 10.7126L5.76074 12.4213L8.69637 14.13L11.5832 12.4447L8.64761 10.7126Z" fill="#03AFEF"/>
<path d="M16.1398 17.5786L16.0598 17.4967V14.2509L16.1398 14.2099L16.1593 14.13L18.9428 12.5071L19.0286 12.5266V15.8699L16.1398 17.5786Z" fill="#2F406A"/>
<path d="M13.2042 15.9753V12.5013H13.2842L16.1164 14.1456L16.1398 14.21V17.5787L13.2042 15.9753Z" fill="#2379BD"/>
<path d="M16.0872 10.7925L13.2003 12.5013L16.1359 14.21L19.0228 12.5247L16.0872 10.7925Z" fill="#03AFEF"/>
<path d="M12.5468 19.6969L12.4668 19.615V16.3693L12.5468 16.3283L12.5663 16.2483L15.3498 14.6254L15.4356 14.6449V17.9882L12.5488 19.6969" fill="#2F406A"/>
<path d="M9.61118 18.0917V14.6196H9.69115L12.5214 16.2679L12.5449 16.3322V19.7009L9.61118 18.0917Z" fill="#2379BD"/>
<path d="M12.498 12.9109L9.61118 14.6196L12.5468 16.3283L15.4337 14.643L12.498 12.9109Z" fill="#03AFEF"/>
<path d="M12.2893 10.777L12.2094 10.695V7.44926L12.2893 7.4083L12.3088 7.32833L15.0923 5.70349L15.1781 5.723V9.0741L12.2913 10.7828" fill="#2F406A"/>
<path d="M9.3537 9.17163V5.69958H9.43367L12.264 7.34783L12.2874 7.4122V10.777L9.3537 9.17163Z" fill="#2379BD"/>
<path d="M12.2425 3.99091L9.3537 5.69962L12.2893 7.40833L15.1762 5.72303L12.2425 3.99091Z" fill="#03AFEF"/>
<path d="M8.69637 12.8953L8.61639 12.8133V9.56755L8.69637 9.52659L8.71587 9.44662L11.4994 7.82373L11.5852 7.84324V11.1865L8.69832 12.8953" fill="#2F406A"/>
<path d="M5.76074 11.29V7.81598H5.84072L8.67492 9.46422L8.69832 9.52859V12.8953L5.76074 11.29Z" fill="#2379BD"/>
<path d="M8.64761 6.10925L5.76074 7.81797L8.69637 9.52668L11.5832 7.84137L8.64761 6.10925Z" fill="#03AFEF"/>
<path d="M16.1398 12.9753L16.0598 12.8933V9.64757L16.1398 9.60661L16.1593 9.52663L18.9428 7.90375L19.0286 7.92325V11.2666L16.1398 12.9753Z" fill="#2F406A"/>
<path d="M13.2042 11.3699V7.90375H13.2842L16.1145 9.55199L16.1379 9.61636V12.9753L13.2042 11.3699Z" fill="#2379BD"/>
<path d="M16.0872 6.18915L13.2042 7.90371L16.1398 9.61242L19.0267 7.92712L16.0872 6.18915Z" fill="#03AFEF"/>
<path d="M12.5468 15.0917L12.4668 15.0097V11.764L12.5468 11.723L12.5663 11.643L15.3498 10.0201L15.4356 10.0396V13.3829L12.5488 15.0917" fill="#2F406A"/>
<path d="M9.61118 13.4883V10.0143H9.69115L12.5214 11.6625L12.5449 11.7269V15.0917L9.61118 13.4883Z" fill="#2379BD"/>
<path d="M12.498 8.30554L9.61118 10.0143L12.5468 11.723L15.4337 10.0377L12.498 8.30554Z" fill="#03AFEF"/>
</svg>
