<svg width="24" height="24" viewBox="0 0 24 24" fill="none" xmlns="http://www.w3.org/2000/svg">
<g clip-path="url(#clip0_838_3216)">
<rect width="24" height="24" fill="#4353FF"/>
<path d="M15.8536 9.69712C15.8536 9.69712 14.5584 13.7548 14.4627 14.0993C14.4245 13.7612 13.4802 6.46875 13.4802 6.46875C11.2727 6.46875 10.0988 8.03822 9.47344 9.69712C9.47344 9.69712 7.89759 13.7676 7.77 14.1057C7.76362 13.7867 7.52756 9.73538 7.52756 9.73538C7.3935 7.70006 5.53687 6.46875 4.03125 6.46875L5.84325 17.5127C8.15278 17.5063 9.39694 15.9432 10.0477 14.278C10.0477 14.278 11.4322 10.686 11.4896 10.5265C11.5024 10.6796 12.4849 17.5127 12.4849 17.5127C14.8009 17.5127 16.0514 16.0517 16.7213 14.4503L19.9688 6.46875C17.6783 6.46875 16.4724 8.03184 15.8536 9.69712Z" fill="white"/>
</g>
<defs>
<clipPath id="clip0_838_3216">
<rect width="24" height="24" fill="white"/>
</clipPath>
</defs>
</svg>
