<svg width="24" height="24" viewBox="0 0 24 24" fill="none" xmlns="http://www.w3.org/2000/svg">
<g clip-path="url(#clip0_838_3220)">
<rect width="24" height="24" fill="#0073AA"/>
<path d="M3.95755 11.9995C3.95755 15.1827 5.80752 17.9337 8.49008 19.2374L4.65383 8.72655C4.19407 9.75639 3.95681 10.8717 3.95755 11.9995ZM17.4289 11.5936C17.4289 10.5998 17.0719 9.91146 16.7657 9.37567C16.358 8.71324 15.9758 8.15224 15.9758 7.4898C15.9758 6.75049 16.5366 6.06236 17.3263 6.06236C17.362 6.06236 17.3958 6.06677 17.4306 6.06874C15.9997 4.75792 14.0935 3.95758 11.9997 3.95758C9.19021 3.95758 6.7183 5.39908 5.28036 7.58252C5.46899 7.58814 5.64683 7.59217 5.79786 7.59217C6.63908 7.59217 7.94118 7.48999 7.94118 7.48999C8.37468 7.46449 8.42586 8.10124 7.99274 8.15252C7.99274 8.15252 7.55708 8.2038 7.0723 8.22921L10.0009 16.9403L11.7608 11.6619L10.5079 8.22892C10.0748 8.20352 9.66458 8.15224 9.66458 8.15224C9.23118 8.12683 9.28199 7.46421 9.7154 7.4898C9.7154 7.4898 11.0435 7.5918 11.8337 7.5918C12.6748 7.5918 13.977 7.4898 13.977 7.4898C14.4109 7.46421 14.4618 8.10096 14.0286 8.15224C14.0286 8.15224 13.592 8.20352 13.1081 8.22892L16.0145 16.874L16.8166 14.1935C17.1643 13.081 17.4289 12.2821 17.4289 11.5936Z" fill="white"/>
<path d="M12.1409 12.7029L9.72797 19.7145C10.4657 19.9318 11.2308 20.0421 11.9998 20.0421C12.9094 20.0424 13.8124 19.8883 14.6704 19.5862C14.6481 19.5511 14.6289 19.514 14.6132 19.4754L12.1409 12.7029ZM19.0565 8.14105C19.093 8.41516 19.1111 8.6914 19.1107 8.96793C19.1107 9.78402 18.9582 10.7015 18.4991 11.8486L16.0426 18.951C18.4335 17.5567 20.0417 14.9665 20.0417 11.9996C20.0418 10.6013 19.6847 9.28649 19.0565 8.14105Z" fill="white"/>
<path d="M11.9998 2.625C6.83063 2.625 2.625 6.83034 2.625 11.9994C2.625 17.1692 6.83063 21.3743 11.9998 21.3743C17.1687 21.3743 21.375 17.1692 21.375 11.9994C21.3748 6.83034 17.1687 2.625 11.9998 2.625ZM11.9998 20.9447C7.06763 20.9447 3.05484 16.9318 3.05484 11.9994C3.05484 7.06734 7.06753 3.05484 11.9998 3.05484C16.9317 3.05484 20.9442 7.06734 20.9442 11.9994C20.9442 16.9318 16.9317 20.9447 11.9998 20.9447Z" fill="white"/>
</g>
<defs>
<clipPath id="clip0_838_3220">
<rect width="24" height="24" fill="white"/>
</clipPath>
</defs>
</svg>
