<svg width="24" height="24" viewBox="0 0 24 24" fill="none" xmlns="http://www.w3.org/2000/svg">
<g clip-path="url(#clip0_859_584)">
<rect width="24" height="24" rx="12" fill="#2396ED"/>
<path d="M13.6113 11.449H15.5535V9.69178H13.6113V11.449ZM11.2992 11.449H13.2413V9.69178H11.2992V11.449ZM9.03328 11.449H10.9755V9.69178H9.03328V11.449ZM6.76734 11.449H8.66344V9.69178H6.76744L6.76734 11.449ZM4.45528 11.449H6.3975V9.69178H4.45528V11.449ZM6.76744 9.32184H8.66334V7.56469H6.76744V9.32184ZM9.03337 9.32184H10.9755V7.56469H9.03328L9.03337 9.32184ZM11.2992 9.32184H13.2413V7.56469H11.2992V9.32184ZM11.2992 7.19466H13.2413V5.4375H11.2992V7.19466ZM21.75 10.663C21.75 10.663 20.9176 9.87684 19.2067 10.1543C19.0217 8.81325 17.5882 8.02716 17.5882 8.02716C17.5882 8.02716 16.2472 9.64566 17.2182 11.4491C16.9408 11.5879 16.4783 11.7728 15.7847 11.7728H3.06806C2.83678 12.6515 2.83678 18.4779 9.21825 18.4779C13.7962 18.4779 17.2182 16.3508 18.8367 12.4664C21.2413 12.6514 21.75 10.663 21.75 10.663Z" fill="white"/>
</g>
<defs>
<clipPath id="clip0_859_584">
<rect width="24" height="24" fill="white"/>
</clipPath>
</defs>
</svg>
