<svg width="24" height="24" viewBox="0 0 24 24" fill="none" xmlns="http://www.w3.org/2000/svg">
<path d="M12.0003 14.1373C13.1808 14.1373 14.1378 13.1803 14.1378 11.9998C14.1378 10.8193 13.1808 9.8623 12.0003 9.8623C10.8198 9.8623 9.86279 10.8193 9.86279 11.9998C9.86279 13.1803 10.8198 14.1373 12.0003 14.1373Z" fill="#61DAFB"/>
<path d="M20.1189 8.4748C19.7064 8.3248 19.2752 8.17481 18.8252 8.04356C18.9377 7.59356 19.0314 7.14355 19.1064 6.7123C19.5002 4.2373 19.0689 2.49355 17.8689 1.81855C17.5127 1.6123 17.1189 1.51855 16.6689 1.51855C15.3564 1.51855 13.6877 2.49355 12.0002 4.1248C10.3127 2.49355 8.64394 1.51855 7.33144 1.51855C6.88144 1.51855 6.4877 1.6123 6.13145 1.81855C4.93145 2.5123 4.5002 4.25605 4.89395 6.7123C4.96895 7.14355 5.0627 7.59356 5.1752 8.04356C4.7252 8.17481 4.29395 8.30605 3.88145 8.4748C1.5377 9.37481 0.262695 10.6123 0.262695 11.9998C0.262695 13.3873 1.55645 14.6248 3.88145 15.5248C4.29395 15.6748 4.7252 15.8248 5.1752 15.9561C5.0627 16.4061 4.96895 16.8561 4.89395 17.2873C4.5002 19.7623 4.93145 21.5061 6.13145 22.1811C6.4877 22.3873 6.88144 22.4811 7.33144 22.4811C8.66269 22.4811 10.3314 21.5061 12.0002 19.8748C13.6877 21.5061 15.3564 22.4811 16.6689 22.4811C17.1189 22.4811 17.5127 22.3873 17.8689 22.1811C19.0689 21.4873 19.5002 19.7436 19.1064 17.2873C19.0314 16.8561 18.9377 16.4061 18.8252 15.9561C19.2752 15.8248 19.7064 15.6936 20.1189 15.5248C22.4627 14.6248 23.7377 13.3873 23.7377 11.9998C23.7377 10.6123 22.4627 9.37481 20.1189 8.4748ZM17.3439 2.75605C18.1127 3.20605 18.3752 4.59355 18.0564 6.56231C18.0002 6.95606 17.9064 7.36856 17.7939 7.79981C16.8189 7.57481 15.7877 7.4248 14.7002 7.33105C14.0627 6.43105 13.4064 5.62481 12.7502 4.89355C14.1377 3.5248 15.5439 2.5873 16.6877 2.5873C16.9314 2.5873 17.1564 2.64355 17.3439 2.75605ZM15.2439 13.8748C14.9064 14.4748 14.5127 15.0748 14.1002 15.6748C13.4064 15.7311 12.7127 15.7498 12.0002 15.7498C11.2689 15.7498 10.5752 15.7311 9.90019 15.6748C9.48769 15.0748 9.11269 14.4748 8.77519 13.8748C8.41894 13.2561 8.08144 12.6186 7.78144 11.9998C8.08144 11.3811 8.41894 10.7436 8.77519 10.1248C9.11269 9.52481 9.50644 8.92481 9.91894 8.32481C10.6127 8.26856 11.3064 8.24981 12.0189 8.24981C12.7502 8.24981 13.4439 8.26856 14.1189 8.32481C14.5314 8.92481 14.9064 9.52481 15.2439 10.1248C15.6002 10.7436 15.9377 11.3811 16.2377 11.9998C15.9189 12.6186 15.6002 13.2373 15.2439 13.8748ZM16.8002 13.2561C17.0814 13.9123 17.3064 14.5498 17.5127 15.1873C16.8752 15.3373 16.2002 15.4498 15.4877 15.5436C15.7127 15.1873 15.9564 14.8123 16.1627 14.4186C16.3877 14.0248 16.5939 13.6311 16.8002 13.2561ZM12.0002 18.3373C11.5502 17.8498 11.1189 17.3248 10.7064 16.7811C11.1377 16.7998 11.5689 16.8186 12.0002 16.8186C12.4314 16.8186 12.8627 16.7998 13.2939 16.7811C12.8814 17.3248 12.4502 17.8498 12.0002 18.3373ZM8.51269 15.5248C7.80019 15.4311 7.12519 15.3186 6.48769 15.1686C6.69394 14.5498 6.91894 13.8936 7.20019 13.2373C7.40644 13.6123 7.61269 14.0061 7.83769 14.3811C8.06269 14.7936 8.28769 15.1498 8.51269 15.5248ZM7.20019 10.7436C6.91894 10.0873 6.69394 9.44981 6.48769 8.81231C7.12519 8.66231 7.80019 8.54981 8.51269 8.45606C8.28769 8.81231 8.04394 9.18731 7.83769 9.58106C7.61269 9.97481 7.40644 10.3686 7.20019 10.7436ZM12.0002 5.66231C12.4502 6.14981 12.8814 6.67481 13.2939 7.21856C12.8627 7.19981 12.4314 7.18105 12.0002 7.18105C11.5689 7.18105 11.1377 7.19981 10.7064 7.21856C11.1189 6.67481 11.5502 6.14981 12.0002 5.66231ZM16.1627 9.59981L15.4877 8.4748C16.2002 8.56855 16.8752 8.68106 17.5127 8.83106C17.3064 9.44981 17.0814 10.1061 16.8002 10.7623C16.5939 10.3686 16.3877 9.97481 16.1627 9.59981ZM5.94395 6.56231C5.6252 4.59355 5.88769 3.20605 6.65644 2.75605C6.84394 2.64355 7.06894 2.5873 7.31269 2.5873C8.43769 2.5873 9.84394 3.50605 11.2502 4.89355C10.5939 5.60606 9.93769 6.43105 9.30019 7.33105C8.21269 7.4248 7.18144 7.59356 6.20644 7.79981C6.09394 7.36856 6.01895 6.95606 5.94395 6.56231ZM1.3127 11.9998C1.3127 11.1186 2.38145 10.1811 4.25645 9.48731C4.63145 9.33731 5.04395 9.20606 5.45645 9.09356C5.75645 10.0311 6.13144 11.0248 6.58144 12.0186C6.13144 13.0123 5.7377 13.9873 5.45645 14.9248C2.86895 14.1748 1.3127 13.0498 1.3127 11.9998ZM6.65644 21.2436C5.88769 20.7936 5.6252 19.4061 5.94395 17.4373C6.0002 17.0436 6.09394 16.6311 6.20644 16.1998C7.18144 16.4248 8.21269 16.5748 9.30019 16.6686C9.93769 17.5686 10.5939 18.3748 11.2502 19.1061C9.86269 20.4748 8.45644 21.4123 7.31269 21.4123C7.06894 21.4123 6.84394 21.3561 6.65644 21.2436ZM18.0564 17.4373C18.3752 19.4061 18.1127 20.7936 17.3439 21.2436C17.1564 21.3561 16.9314 21.4123 16.6877 21.4123C15.5627 21.4123 14.1564 20.4936 12.7502 19.1061C13.4064 18.3936 14.0627 17.5686 14.7002 16.6686C15.7877 16.5748 16.8189 16.4061 17.7939 16.1998C17.9064 16.6311 17.9814 17.0436 18.0564 17.4373ZM19.7439 14.5123C19.3689 14.6623 18.9564 14.7936 18.5439 14.9061C18.2439 13.9686 17.8689 12.9748 17.4189 11.9811C17.8689 10.9873 18.2627 10.0123 18.5439 9.07481C21.1314 9.82481 22.6877 10.9498 22.6877 11.9998C22.6877 12.8811 21.6002 13.8186 19.7439 14.5123Z" fill="#61DAFB"/>
</svg>
