<svg width="24" height="24" viewBox="0 0 24 24" fill="none" xmlns="http://www.w3.org/2000/svg">
<g clip-path="url(#clip0_859_594)">
<rect width="24" height="24" rx="12" fill="#4353FF"/>
<path d="M16.4805 10.0135C16.4805 10.0135 15.1854 14.0712 15.0897 14.4158C15.0514 14.0776 14.1072 6.78516 14.1072 6.78516C11.8996 6.78516 10.7257 8.35462 10.1004 10.0135C10.1004 10.0135 8.52455 14.084 8.39695 14.4221C8.39058 14.1031 8.15452 10.0518 8.15452 10.0518C8.02045 8.01647 6.16383 6.78516 4.6582 6.78516L6.4702 17.8291C8.77973 17.8227 10.0239 16.2596 10.6746 14.5944C10.6746 14.5944 12.0591 11.0024 12.1166 10.8429C12.1293 10.996 13.1118 17.8291 13.1118 17.8291C15.4278 17.8291 16.6784 16.3681 17.3482 14.7667L20.5957 6.78516C18.3052 6.78516 17.0994 8.34825 16.4805 10.0135Z" fill="white"/>
</g>
<defs>
<clipPath id="clip0_859_594">
<rect width="24" height="24" fill="white"/>
</clipPath>
</defs>
</svg>
