<svg width="24" height="24" viewBox="0 0 24 24" fill="none" xmlns="http://www.w3.org/2000/svg">
<g clip-path="url(#clip0_859_538)">
<rect width="24" height="24" rx="12" fill="#E14E1D"/>
<path d="M6 6L6.67034 13.5204H15.2898L15.0006 16.7459L12.2253 17.4963L9.45526 16.747L9.27004 14.6759H6.77389L7.13086 18.6684L12.2248 20.0833L17.3251 18.6684L18.0089 11.0338H8.94483L8.71726 8.48712H18.2342L18.457 6H6Z" fill="white"/>
<path d="M12.2285 6H6L6.67034 13.5204H12.2285V11.0338H8.94483L8.71726 8.48712H12.2285V6ZM12.2285 17.4952L12.2253 17.4963L9.45526 16.747L9.27004 14.6759H6.77389L7.13086 18.6684L12.2248 20.0833L12.2286 20.0822L12.2285 17.4952Z" fill="#EBEBEB"/>
</g>
<defs>
<clipPath id="clip0_859_538">
<rect width="24" height="24" fill="white"/>
</clipPath>
</defs>
</svg>
