<svg width="24" height="24" viewBox="0 0 24 24" fill="none" xmlns="http://www.w3.org/2000/svg">
<g clip-path="url(#clip0_859_598)">
<rect width="24" height="24" rx="12" fill="#0073AA"/>
<path d="M3.95703 11.9994C3.95703 15.1827 5.807 17.9337 8.48956 19.2374L4.65331 8.72649C4.19355 9.75632 3.95629 10.8716 3.95703 11.9994ZM17.4283 11.5936C17.4283 10.5997 17.0713 9.91139 16.7652 9.37561C16.3574 8.71318 15.9753 8.15218 15.9753 7.48974C15.9753 6.75043 16.536 6.0623 17.3258 6.0623C17.3615 6.0623 17.3953 6.06671 17.43 6.06868C15.9992 4.75786 14.093 3.95752 11.9992 3.95752C9.18969 3.95752 6.71778 5.39902 5.27985 7.58246C5.46847 7.58808 5.64631 7.59211 5.79735 7.59211C6.63856 7.59211 7.94066 7.48993 7.94066 7.48993C8.37416 7.46443 8.42535 8.10118 7.99222 8.15246C7.99222 8.15246 7.55656 8.20374 7.07178 8.22914L10.0003 16.9402L11.7603 11.6618L10.5073 8.22886C10.0743 8.20346 9.66406 8.15218 9.66406 8.15218C9.23066 8.12677 9.28147 7.46414 9.71488 7.48974C9.71488 7.48974 11.0429 7.59174 11.8332 7.59174C12.6743 7.59174 13.9765 7.48974 13.9765 7.48974C14.4103 7.46414 14.4613 8.10089 14.028 8.15218C14.028 8.15218 13.5914 8.20346 13.1076 8.22886L16.0139 16.8739L16.8161 14.1934C17.1638 13.081 17.4283 12.2821 17.4283 11.5936Z" fill="white"/>
<path d="M12.1415 12.703L9.72852 19.7146C10.4662 19.9318 11.2313 20.0422 12.0004 20.0422C12.9099 20.0425 13.813 19.8883 14.6709 19.5863C14.6486 19.5511 14.6295 19.514 14.6137 19.4755L12.1415 12.703ZM19.057 8.14111C19.0935 8.41522 19.1116 8.69146 19.1112 8.96799C19.1112 9.78408 18.9588 10.7015 18.4997 11.8486L16.0431 18.9511C18.434 17.5568 20.0422 14.9666 20.0422 11.9997C20.0423 10.6014 19.6852 9.28655 19.057 8.14111Z" fill="white"/>
<path d="M11.9998 2.625C6.83063 2.625 2.625 6.83034 2.625 11.9994C2.625 17.1692 6.83063 21.3743 11.9998 21.3743C17.1687 21.3743 21.375 17.1692 21.375 11.9994C21.3748 6.83034 17.1687 2.625 11.9998 2.625ZM11.9998 20.9447C7.06763 20.9447 3.05484 16.9318 3.05484 11.9994C3.05484 7.06734 7.06753 3.05484 11.9998 3.05484C16.9317 3.05484 20.9442 7.06734 20.9442 11.9994C20.9442 16.9318 16.9317 20.9447 11.9998 20.9447Z" fill="white"/>
</g>
<defs>
<clipPath id="clip0_859_598">
<rect width="24" height="24" fill="white"/>
</clipPath>
</defs>
</svg>
